<svg xmlns="http://www.w3.org/2000/svg" xmlns:xlink="http://www.w3.org/1999/xlink" width="500" zoomAndPan="magnify" viewBox="0 0 375 374.999991" height="500" preserveAspectRatio="xMidYMid meet" version="1.0"><defs><g/><clipPath id="a1d14f2e8e"><path d="M 191 152 L 295 152 L 295 229 L 191 229 Z M 191 152 " clip-rule="nonzero"/></clipPath><clipPath id="9fce8e81df"><path d="M 186.429688 163.589844 L 287.019531 139.207031 L 304.507812 211.371094 L 203.921875 235.75 Z M 186.429688 163.589844 " clip-rule="nonzero"/></clipPath><clipPath id="26e905150a"><path d="M 186.429688 163.589844 L 287.019531 139.207031 L 304.507812 211.371094 L 203.921875 235.75 Z M 186.429688 163.589844 " clip-rule="nonzero"/></clipPath><clipPath id="04da2b3a22"><path d="M 77.71875 179.046875 L 96.46875 179.046875 L 96.46875 197.796875 L 77.71875 197.796875 Z M 77.71875 179.046875 " clip-rule="nonzero"/></clipPath></defs><g clip-path="url(#a1d14f2e8e)"><g clip-path="url(#9fce8e81df)"><g clip-path="url(#26e905150a)"><path fill="#9cff1e" d="M 293.054688 173.332031 C 293.429688 174.753906 294.21875 175.605469 294.867188 176.085938 C 293.890625 177.40625 292.90625 178.722656 291.917969 180.035156 C 290.84375 179.226562 289.09375 177.507812 288.328125 174.613281 C 286.515625 177.042969 284.679688 179.453125 282.820312 181.847656 C 280.699219 184.582031 278.550781 187.292969 276.363281 189.980469 C 274.179688 192.667969 271.960938 195.332031 269.703125 197.964844 C 267.445312 200.597656 265.140625 203.195312 262.785156 205.753906 C 260.425781 208.308594 258.011719 210.824219 255.515625 213.265625 C 253.015625 215.710938 250.429688 218.089844 247.695312 220.335938 C 244.949219 222.574219 242.078125 224.710938 238.804688 226.46875 C 237.160156 227.335938 235.410156 228.113281 233.433594 228.59375 C 232.441406 228.824219 231.390625 228.976562 230.273438 228.960938 C 229.71875 228.957031 229.144531 228.898438 228.570312 228.792969 C 227.992188 228.679688 227.417969 228.511719 226.859375 228.285156 C 226.300781 228.050781 225.765625 227.761719 225.269531 227.421875 C 224.820312 227.074219 224.363281 226.753906 223.964844 226.335938 C 223.542969 225.953125 223.1875 225.496094 222.832031 225.042969 C 222.675781 224.804688 222.519531 224.566406 222.367188 224.324219 C 222.285156 224.203125 222.21875 224.078125 222.15625 223.953125 L 221.964844 223.574219 C 221.476562 222.5625 221.148438 221.496094 220.984375 220.464844 L 220.914062 220.078125 L 220.871094 219.691406 C 220.847656 219.4375 220.816406 219.179688 220.796875 218.925781 C 220.78125 218.425781 220.746094 217.917969 220.769531 217.429688 C 220.8125 215.460938 221.117188 213.601562 221.535156 211.8125 C 221.957031 210.023438 222.484375 208.300781 223.066406 206.617188 C 224.238281 203.246094 225.621094 200.019531 227.054688 196.847656 C 228.492188 193.671875 229.992188 190.554688 231.480469 187.453125 C 232.964844 184.347656 234.441406 181.261719 235.8125 178.15625 C 237.175781 175.058594 238.457031 171.933594 239.382812 168.808594 C 239.839844 167.25 240.199219 165.6875 240.375 164.1875 L 240.445312 163.355469 L 240.449219 163.085938 C 240.453125 162.910156 240.460938 162.726562 240.460938 162.550781 L 240.4375 162.035156 C 240.386719 161.363281 240.273438 160.734375 240.082031 160.203125 C 239.878906 159.679688 239.613281 159.25 239.257812 158.886719 C 239.167969 158.796875 239.089844 158.699219 238.976562 158.625 L 238.820312 158.503906 C 238.769531 158.460938 238.726562 158.417969 238.65625 158.378906 C 238.523438 158.300781 238.398438 158.21875 238.269531 158.136719 L 237.863281 157.929688 C 237.3125 157.675781 236.71875 157.503906 236.082031 157.402344 C 235.445312 157.300781 234.753906 157.304688 234.054688 157.355469 C 232.644531 157.460938 231.160156 157.859375 229.695312 158.390625 C 228.226562 158.9375 226.765625 159.628906 225.335938 160.40625 C 222.46875 161.972656 219.714844 163.871094 217.046875 165.90625 C 214.378906 167.945312 211.796875 170.132812 209.285156 172.40625 C 206.777344 174.683594 204.332031 177.046875 201.949219 179.472656 C 200.753906 180.6875 199.578125 181.914062 198.417969 183.15625 C 197.839844 183.78125 197.265625 184.40625 196.695312 185.035156 C 196.128906 185.65625 195.554688 186.300781 195.019531 186.914062 L 191.3125 183.726562 C 191.90625 183.039062 192.480469 182.398438 193.070312 181.75 C 193.65625 181.101562 194.246094 180.457031 194.839844 179.820312 C 196.03125 178.546875 197.234375 177.285156 198.457031 176.042969 C 200.898438 173.554688 203.410156 171.132812 206.003906 168.78125 C 208.59375 166.433594 211.269531 164.160156 214.074219 162.015625 C 216.882812 159.878906 219.8125 157.851562 222.992188 156.109375 C 224.585938 155.246094 226.246094 154.453125 228.003906 153.796875 C 229.769531 153.160156 231.636719 152.636719 233.667969 152.476562 C 234.683594 152.402344 235.726562 152.398438 236.792969 152.5625 C 237.859375 152.722656 238.933594 153.03125 239.941406 153.503906 C 240.191406 153.628906 240.445312 153.75 240.6875 153.882812 L 241.398438 154.328125 C 241.511719 154.394531 241.632812 154.496094 241.75 154.585938 L 242.101562 154.863281 C 242.339844 155.039062 242.550781 155.257812 242.765625 155.476562 C 243.617188 156.34375 244.265625 157.414062 244.671875 158.5 C 245.066406 159.589844 245.242188 160.671875 245.320312 161.714844 L 245.351562 162.488281 C 245.355469 162.742188 245.34375 162.992188 245.339844 163.242188 L 245.328125 163.621094 L 245.300781 163.988281 L 245.238281 164.71875 C 245.015625 166.640625 244.585938 168.445312 244.074219 170.191406 C 243.042969 173.671875 241.691406 176.929688 240.289062 180.132812 C 238.875 183.328125 237.382812 186.457031 235.894531 189.566406 C 234.402344 192.675781 232.917969 195.761719 231.511719 198.863281 C 230.109375 201.964844 228.78125 205.078125 227.691406 208.214844 C 227.148438 209.785156 226.667969 211.359375 226.300781 212.921875 C 225.933594 214.484375 225.691406 216.046875 225.660156 217.519531 C 225.640625 217.894531 225.675781 218.246094 225.679688 218.605469 C 225.691406 218.78125 225.714844 218.953125 225.730469 219.125 L 225.757812 219.382812 L 225.804688 219.628906 C 225.90625 220.300781 226.109375 220.894531 226.363281 221.429688 L 226.460938 221.628906 C 226.492188 221.695312 226.527344 221.761719 226.570312 221.820312 C 226.648438 221.9375 226.726562 222.058594 226.800781 222.183594 C 226.988281 222.402344 227.152344 222.636719 227.375 222.828125 C 227.5625 223.042969 227.824219 223.207031 228.050781 223.394531 C 228.265625 223.539062 228.492188 223.660156 228.726562 223.761719 C 228.964844 223.855469 229.21875 223.933594 229.488281 223.988281 C 229.761719 224.03125 230.046875 224.066406 230.347656 224.070312 C 230.957031 224.078125 231.621094 223.992188 232.304688 223.832031 C 233.679688 223.5 235.113281 222.890625 236.507812 222.148438 C 239.3125 220.648438 242.007812 218.667969 244.589844 216.554688 C 247.179688 214.429688 249.667969 212.140625 252.09375 209.769531 C 254.519531 207.398438 256.875 204.941406 259.1875 202.4375 C 261.5 199.929688 263.765625 197.371094 265.992188 194.777344 C 268.21875 192.183594 270.410156 189.554688 272.566406 186.894531 C 274.726562 184.238281 276.855469 181.554688 278.957031 178.847656 C 280.796875 176.476562 282.613281 174.089844 284.410156 171.683594 C 281.425781 171.753906 279.304688 170.523438 278.230469 169.714844 C 279.183594 168.445312 280.132812 167.175781 281.074219 165.902344 C 281.722656 166.378906 282.761719 166.890625 284.222656 166.84375 C 285.675781 166.796875 287.570312 166.179688 289.851562 164.402344 L 293.691406 167.105469 C 292.710938 169.917969 292.679688 171.902344 293.054688 173.332031 Z M 293.054688 173.332031 " fill-opacity="1" fill-rule="nonzero"/></g></g></g><g clip-path="url(#04da2b3a22)"><path fill="#9cff1e" d="M 96.402344 185.847656 L 96.402344 190.976562 C 90.191406 192.792969 89.261719 196.015625 89.261719 197.773438 L 83.917969 197.773438 C 83.917969 196.304688 84.257812 193.648438 86.296875 191.082031 L 77.722656 191.082031 L 77.722656 185.738281 L 86.296875 185.738281 C 84.257812 183.175781 83.917969 180.515625 83.917969 179.046875 L 89.261719 179.046875 C 89.261719 180.804688 90.191406 184.03125 96.402344 185.847656 Z M 96.402344 185.847656 " fill-opacity="1" fill-rule="nonzero"/></g><g fill="#ffffff" fill-opacity="1"><g transform="translate(109.280066, 197.012072)"><g><path d="M 0.511719 0 L 16.914062 0 C 20.992188 0 22.757812 -2.359375 22.757812 -5.304688 C 22.757812 -7.253906 21.632812 -8.894531 20.066406 -10.019531 C 20.9375 -11.046875 21.476562 -12.226562 21.476562 -13.378906 C 21.476562 -16.09375 20.222656 -17.941406 16.148438 -17.941406 L 0.511719 -17.941406 Z M 7.175781 -11.636719 L 7.175781 -13.582031 L 13.328125 -13.582031 C 13.992188 -13.582031 14.8125 -13.582031 14.8125 -12.609375 C 14.8125 -11.636719 13.992188 -11.636719 13.328125 -11.636719 Z M 7.175781 -4.871094 L 7.175781 -6.765625 L 14.609375 -6.765625 C 15.273438 -6.765625 16.09375 -6.765625 16.09375 -5.816406 C 16.09375 -4.871094 15.273438 -4.871094 14.609375 -4.871094 Z M 7.175781 -4.871094 "/></g></g></g><g fill="#ffffff" fill-opacity="1"><g transform="translate(132.293884, 197.012072)"><g><path d="M 0.511719 0 L 7.175781 0 L 7.175781 -4.203125 L 11.097656 -4.203125 L 13.582031 0 L 21.476562 0 L 18.300781 -5.152344 C 20.273438 -6.304688 21.476562 -8.457031 21.476562 -11.070312 C 21.476562 -15.070312 18.683594 -17.941406 14.609375 -17.941406 L 0.511719 -17.941406 Z M 7.175781 -9.839844 L 7.175781 -12.300781 L 13.328125 -12.300781 C 13.992188 -12.300781 14.8125 -12.300781 14.8125 -11.070312 C 14.8125 -9.839844 13.992188 -9.839844 13.328125 -9.839844 Z M 7.175781 -9.839844 "/></g></g></g><g fill="#ffffff" fill-opacity="1"><g transform="translate(154.026314, 197.012072)"><g><path d="M 11.789062 0.257812 C 19.65625 0.257812 23.066406 -2.769531 23.066406 -8.996094 L 23.066406 -17.941406 L 16.402344 -17.941406 L 16.402344 -8.996094 C 16.402344 -7.097656 15.710938 -5.382812 11.789062 -5.382812 C 7.867188 -5.382812 7.175781 -7.074219 7.175781 -8.996094 L 7.175781 -17.941406 L 0.511719 -17.941406 L 0.511719 -8.996094 C 0.511719 -2.742188 3.894531 0.257812 11.789062 0.257812 Z M 11.789062 0.257812 "/></g></g></g><g fill="#ffffff" fill-opacity="1"><g transform="translate(177.603944, 197.012072)"><g><path d="M 0.511719 0 L 7.175781 0 L 7.175781 -10.585938 L 14.917969 0 L 23.628906 0 L 23.628906 -17.941406 L 16.964844 -17.941406 L 16.964844 -7.355469 L 9.226562 -17.941406 L 0.511719 -17.941406 Z M 0.511719 0 "/></g></g></g><g fill="#ffffff" fill-opacity="1"><g transform="translate(201.745387, 197.012072)"><g><path d="M 11.535156 0.257812 C 19.402344 0.257812 22.808594 -2.769531 22.808594 -8.996094 C 22.808594 -15.199219 19.402344 -18.195312 11.535156 -18.195312 C 3.640625 -18.195312 0.257812 -15.222656 0.257812 -8.996094 C 0.257812 -2.742188 3.640625 0.257812 11.535156 0.257812 Z M 11.535156 -5.382812 C 7.613281 -5.382812 6.921875 -7.074219 6.921875 -8.996094 C 6.921875 -10.890625 7.585938 -12.558594 11.535156 -12.558594 C 15.480469 -12.558594 16.148438 -10.867188 16.148438 -8.996094 C 16.148438 -7.097656 15.453125 -5.382812 11.535156 -5.382812 Z M 11.535156 -5.382812 "/></g></g></g><g fill="#9cff1e" fill-opacity="1"><g transform="translate(109.280066, 212.020609)"><g><path d="M 0.21875 0 L 3.066406 0 L 3.066406 -3.644531 L 5.15625 0 L 7.015625 0 L 9.109375 -3.644531 L 9.109375 0 L 11.953125 0 L 11.953125 -7.664062 L 8.449219 -7.664062 L 6.085938 -3.285156 L 3.722656 -7.664062 L 0.21875 -7.664062 Z M 0.21875 0 "/></g></g></g><g fill="#9cff1e" fill-opacity="1"><g transform="translate(121.45218, 212.020609)"><g><path d="M 0.109375 0 L 3.242188 0 L 3.765625 -1.378906 L 7.027344 -1.378906 L 7.554688 0 L 10.683594 0 L 7.507812 -7.664062 L 3.285156 -7.664062 Z M 4.511719 -3.351562 L 5.398438 -5.691406 L 6.285156 -3.351562 Z M 4.511719 -3.351562 "/></g></g></g><g fill="#9cff1e" fill-opacity="1"><g transform="translate(132.245079, 212.020609)"><g><path d="M 0.21875 0 L 3.066406 0 L 3.066406 -1.796875 L 4.738281 -1.796875 L 5.800781 0 L 9.171875 0 L 7.816406 -2.199219 C 8.660156 -2.691406 9.171875 -3.613281 9.171875 -4.730469 C 9.171875 -6.4375 7.980469 -7.664062 6.238281 -7.664062 L 0.21875 -7.664062 Z M 3.066406 -4.203125 L 3.066406 -5.253906 L 5.691406 -5.253906 C 5.976562 -5.253906 6.328125 -5.253906 6.328125 -4.730469 C 6.328125 -4.203125 5.976562 -4.203125 5.691406 -4.203125 Z M 3.066406 -4.203125 "/></g></g></g><g fill="#9cff1e" fill-opacity="1"><g transform="translate(141.527412, 212.020609)"><g><path d="M 0.21875 0 L 3.066406 0 L 3.066406 -7.664062 L 0.21875 -7.664062 Z M 0.21875 0 "/></g></g></g><g fill="#9cff1e" fill-opacity="1"><g transform="translate(144.811256, 212.020609)"><g><path d="M 0.109375 0 L 3.242188 0 L 3.765625 -1.378906 L 7.027344 -1.378906 L 7.554688 0 L 10.683594 0 L 7.507812 -7.664062 L 3.285156 -7.664062 Z M 4.511719 -3.351562 L 5.398438 -5.691406 L 6.285156 -3.351562 Z M 4.511719 -3.351562 "/></g></g></g><g fill="#9cff1e" fill-opacity="1"><g transform="translate(155.604154, 212.020609)"><g><path d="M 0.21875 0 L 3.066406 0 L 3.066406 -4.519531 L 6.371094 0 L 10.09375 0 L 10.09375 -7.664062 L 7.246094 -7.664062 L 7.246094 -3.140625 L 3.941406 -7.664062 L 0.21875 -7.664062 Z M 0.21875 0 "/></g></g></g><g fill="#9cff1e" fill-opacity="1"><g transform="translate(165.915423, 212.020609)"><g><path d="M 4.925781 0.109375 C 8.285156 0.109375 9.742188 -1.183594 9.742188 -3.84375 C 9.742188 -6.492188 8.285156 -7.773438 4.925781 -7.773438 C 1.554688 -7.773438 0.109375 -6.503906 0.109375 -3.84375 C 0.109375 -1.171875 1.554688 0.109375 4.925781 0.109375 Z M 4.925781 -2.296875 C 3.25 -2.296875 2.957031 -3.019531 2.957031 -3.84375 C 2.957031 -4.652344 3.242188 -5.363281 4.925781 -5.363281 C 6.613281 -5.363281 6.894531 -4.640625 6.894531 -3.84375 C 6.894531 -3.03125 6.601562 -2.296875 4.925781 -2.296875 Z M 4.925781 -2.296875 "/></g></g></g></svg>